<?xml version="1.0" encoding="UTF-8" standalone="no"?><!DOCTYPE svg PUBLIC "-//W3C//DTD SVG 1.1//EN" "http://www.w3.org/Graphics/SVG/1.1/DTD/svg11.dtd"><svg width="100%" height="100%" viewBox="0 0 2350 525" version="1.1" xmlns="http://www.w3.org/2000/svg" xmlns:xlink="http://www.w3.org/1999/xlink" xml:space="preserve" xmlns:serif="http://www.serif.com/" style="fill-rule:evenodd;clip-rule:evenodd;stroke-linejoin:round;stroke-miterlimit:2;"><g><path d="M2346.57,37.7c-0,-0 -166.709,268.583 -203.046,331.283c-7.909,13.638 -8.192,34.196 -14.954,44.884c-5.5,8.671 -19.238,13.171 -23.505,19.225c-3.287,4.662 -1.949,11.854 -4.279,17.108c-2.85,6.408 -12.821,21.367 -12.821,21.367l-14.966,14.958l-25.646,38.475c0,-0 -101.879,-168.129 -126.104,-203.042c-3.846,-5.55 -13.533,-5.7 -19.225,-8.545c-5.483,-2.742 -14.967,-10.692 -14.967,-10.692c0,-0 -6.087,-6.246 -10.679,-8.546c-5.704,-2.846 -16.038,-8.187 -21.379,-10.692c-3.229,-1.496 -6.933,-3.475 -10.688,-4.266c-6.762,-1.425 -22.437,-2.142 -29.916,-4.279c-5.529,-1.576 -11.079,-4.309 -14.967,-8.551c-3.917,-4.27 -6.054,-12.466 -8.55,-17.095c-1.812,-3.375 -3.092,-7.184 -2.129,-10.68c1.062,-3.925 7.946,-7.729 8.55,-12.829c0.704,-6.054 -1.071,-16.746 -4.279,-23.508c-3.209,-6.771 -9.621,-11.758 -14.959,-17.096c-5.35,-5.35 -13.058,-8.558 -17.095,-14.967c-4.28,-6.762 -7.13,-19.229 -8.55,-25.645c-0.93,-4.175 -1.426,-9.621 -0,-12.821c1.42,-3.209 7.42,-3.038 8.55,-6.417c1.42,-4.271 1.049,-12.904 -0,-19.229c-1.071,-6.429 -4.28,-14.7 -6.421,-19.333c-1.48,-3.209 -3.917,-7.4 -6.409,-8.45c-2.491,-1.063 -5.787,1.116 -8.55,2.137c-2.846,1.05 -5.454,4.871 -8.55,4.184c-3.208,-0.717 -7.829,-5.271 -10.687,-8.463c-2.758,-3.096 -6.763,-7.479 -6.408,-10.687c0.354,-3.201 8.195,-6.059 8.55,-8.55c0.354,-2.492 -5.455,-3.542 -6.409,-6.409c-1.071,-3.208 -1.425,-10.687 0,-12.829c1.421,-2.129 6.763,1.071 8.546,-0c1.779,-1.058 3.2,-4.983 2.142,-6.408c-1.071,-1.425 -7.492,-1.071 -8.55,-2.138c-1.071,-1.071 1.425,-3.2 2.129,-4.271c0.562,-0.841 1.825,-1.183 2.142,-2.141c0.354,-1.067 0.858,-3.134 -0,-4.267c-1.071,-1.433 -5.342,-2.496 -6.409,-4.279c-1.071,-1.779 -0.716,-4.634 0,-6.413c0.704,-1.783 2.846,-3.912 4.267,-4.279c1.433,-0.35 2.829,1.483 4.279,2.142c2.667,1.221 7.517,-0.413 8.55,-2.142c0.517,-0.858 1.575,1.3 2.138,2.142c0.708,1.071 1.779,2.846 2.133,4.279c0.35,1.375 -0.634,3 -0,4.271c0.716,1.421 3.208,3.208 4.279,4.279c0.704,0.704 1.575,1.296 2.138,2.129c0.708,1.071 2.491,3.208 2.129,4.279c-0.35,1.071 -3.917,1.421 -4.267,2.138c-0.354,0.708 1.525,1.329 2.138,2.133c1.07,1.429 2.491,4.629 4.27,6.417c1.788,1.775 3.896,3.762 6.409,4.271c3.562,0.716 11.758,0.354 14.966,-0c1.588,-0.175 3.45,-0.775 4.271,-2.142c1.071,-1.775 1.071,-6.408 2.138,-8.546c0.9,-1.796 2.496,-3.567 4.279,-4.271c1.779,-0.716 4.625,-0.716 6.412,0c1.775,0.704 3.2,2.846 4.267,4.271c0.958,1.279 0.775,3.454 2.142,4.279c1.787,1.067 5.616,1.929 8.55,2.138c4.983,0.354 14.258,0.458 21.375,-0c11.041,-0.717 30.279,-0.717 44.883,-4.279c14.604,-3.563 31.7,-14.25 42.746,-17.096c7.583,-1.959 17.45,0.717 23.504,-0c4.479,-0.525 8.55,-4.634 12.829,-4.271c4.271,0.354 8.454,4.471 12.817,6.408c6.408,2.846 16.717,8.242 25.646,10.688c11.758,3.2 29.65,8.092 44.883,8.55c60.204,1.775 316.317,2.129 316.317,2.129Zm-380.179,77.992l157.595,214.187l-8.35,0l-0.887,-0.9l-116.483,-158.479l-0,159.379l-36.938,0l-0,-214.187l5.063,-0Zm147.462,33.658c0,-7.546 -2.629,-13.908 -7.892,-19.063c-5.262,-5.17 -11.566,-7.75 -18.92,-7.75l-3.28,0l0,-6.845l36.95,-0l0,110.512l-6.858,0l0,-76.854Z"/><path d="M37.529,116.579l0.6,2.083l61.963,165.93l-16.38,45.287l-5.37,0l-78.342,-213.3l37.529,0Zm163.246,-0.887l38.437,-0l-12.512,35.741l-26.517,76.559l-6.55,-2.379l27.109,-77.455c2.575,-7.545 2.079,-13.804 -1.492,-18.77c-3.179,-4.567 -8.242,-6.851 -15.196,-6.851l-3.279,0l0,-6.845Zm-84.596,0.887l0.896,2.083l61.658,165.93l-16.087,45.287l-5.358,0l-78.651,-213.3l37.542,0Z" style="fill-rule:nonzero;"/><path d="M674.692,323.021c6.954,-0 12.016,-2.283 15.2,-6.85c3.57,-4.967 4.066,-11.317 1.487,-19.067l0,-0.296l-26.808,-77.158l6.254,-2.079l26.812,77.454l12.209,34.546l-38.429,-0l-0,-6.55l3.275,-0Zm-46.171,-207.329l4.766,-0l16.688,46.171l-62.567,168.016l-37.525,0l78.638,-214.187Z" style="fill-rule:nonzero;"/><path d="M1143.03,115.692l38.13,-0l-12.809,37.233l-26.208,75.067l-6.258,-2.379l27.108,-77.455c2.579,-7.545 2.083,-13.804 -1.492,-18.77c-3.379,-4.567 -8.442,-6.851 -15.196,-6.851l-3.275,0l0,-6.845Zm-84.895,0.887l0.887,2.083l61.962,165.93l-16.383,45.287l-5.358,0l-78.35,-213.3l37.242,0Z" style="fill-rule:nonzero;"/><path d="M1567.44,115.692l83.112,-0l0,36.933l-6.85,-0l0,-3.275c0,-7.546 -2.625,-13.908 -7.891,-19.063c-5.263,-5.17 -11.576,-7.75 -18.921,-7.75l-49.45,0l-0,-6.845Zm76.262,180.516l0,-3.275l6.85,0l0,36.946l-83.112,0l-0,-6.562l49.45,-0c7.345,-0 13.658,-2.629 18.921,-7.892c5.266,-5.263 7.891,-11.671 7.891,-19.217Zm-45.879,-43.191c-0,-7.346 -2.625,-13.65 -7.888,-18.913c-5.262,-5.262 -11.67,-7.9 -19.216,-7.9l-42.6,0l-0,103.675l-36.938,0l0,-214.187l36.938,-0l-0,103.662l42.6,0c7.546,0 13.954,-2.633 19.216,-7.9c5.263,-5.262 7.888,-11.567 7.888,-18.912l-0,-3.275l6.554,-0l0,67.321l-6.554,-0l-0,-3.571Z" style="fill-rule:nonzero;"/><path d="M1907.65,382.95c-0,0 -34.242,55.171 -41.712,68.046c-1.626,2.808 -1.68,7.033 -3.075,9.225c-1.13,1.779 -3.946,2.704 -4.826,3.946c-0.675,0.954 -0.399,2.437 -0.879,3.516c-0.579,1.317 -2.633,4.392 -2.633,4.392l-3.075,3.067l-5.267,7.908c0,0 -20.925,-34.538 -25.904,-41.713c-0.791,-1.137 -2.779,-1.162 -3.942,-1.758c-1.129,-0.562 -3.079,-2.187 -3.079,-2.187c0,-0 -1.25,-1.288 -2.196,-1.755c-1.175,-0.591 -3.295,-1.683 -4.391,-2.2c-0.659,-0.312 -1.425,-0.716 -2.188,-0.879c-1.396,-0.295 -4.612,-0.437 -6.154,-0.875c-1.133,-0.325 -2.271,-0.891 -3.075,-1.758c-0.8,-0.879 -1.242,-2.563 -1.746,-3.517c-0.383,-0.687 -0.641,-1.47 -0.441,-2.187c0.221,-0.813 1.625,-1.583 1.75,-2.634c0.154,-1.245 -0.221,-3.441 -0.879,-4.833c-0.65,-1.387 -1.967,-2.408 -3.067,-3.508c-1.1,-1.096 -2.683,-1.759 -3.517,-3.075c-0.875,-1.396 -1.458,-3.954 -1.754,-5.271c-0.192,-0.85 -0.287,-1.971 0,-2.629c0.296,-0.659 1.525,-0.629 1.754,-1.317c0.3,-0.879 0.221,-2.654 0,-3.954c-0.217,-1.321 -0.875,-3.021 -1.317,-3.975c-0.304,-0.658 -0.799,-1.512 -1.316,-1.729c-0.509,-0.213 -1.188,0.229 -1.758,0.442c-0.584,0.208 -1.117,0.991 -1.751,0.85c-0.658,-0.146 -1.612,-1.075 -2.195,-1.73c-0.571,-0.641 -1.396,-1.537 -1.317,-2.196c0.075,-0.662 1.679,-1.241 1.758,-1.758c0.067,-0.516 -1.129,-0.725 -1.321,-1.321c-0.216,-0.658 -0.295,-2.195 0,-2.633c0.288,-0.442 1.388,0.217 1.759,0c0.362,-0.221 0.658,-1.025 0.442,-1.321c-0.221,-0.283 -1.542,-0.216 -1.759,-0.437c-0.221,-0.221 0.288,-0.659 0.438,-0.871c0.116,-0.179 0.375,-0.246 0.441,-0.438c0.067,-0.221 0.171,-0.65 0,-0.879c-0.221,-0.296 -1.1,-0.516 -1.321,-0.879c-0.216,-0.371 -0.141,-0.954 0,-1.317c0.146,-0.362 0.584,-0.804 0.88,-0.879c0.287,-0.079 0.583,0.304 0.879,0.438c0.546,0.25 1.537,-0.084 1.758,-0.438c0.104,-0.183 0.317,0.267 0.429,0.438c0.154,0.221 0.371,0.583 0.438,0.879c0.079,0.287 -0.121,0.612 -0,0.879c0.154,0.288 0.662,0.658 0.879,0.879c0.154,0.142 0.325,0.267 0.442,0.438c0.154,0.22 0.516,0.662 0.437,0.879c-0.067,0.212 -0.8,0.287 -0.879,0.429c-0.067,0.154 0.317,0.279 0.442,0.442c0.22,0.295 0.516,0.954 0.879,1.316c0.371,0.375 0.8,0.775 1.316,0.88c0.738,0.154 2.417,0.079 3.075,-0c0.325,-0.038 0.709,-0.155 0.88,-0.438c0.221,-0.363 0.221,-1.321 0.441,-1.758c0.18,-0.363 0.505,-0.725 0.88,-0.871c0.362,-0.15 0.941,-0.15 1.316,-0c0.363,0.146 0.659,0.583 0.879,0.871c0.192,0.266 0.15,0.716 0.43,0.879c0.37,0.221 1.154,0.4 1.758,0.437c1.029,0.079 2.933,0.096 4.391,0c2.267,-0.141 6.221,-0.141 9.217,-0.879c3,-0.725 6.517,-2.921 8.779,-3.504c1.567,-0.4 3.592,0.142 4.834,0c0.916,-0.113 1.758,-0.954 2.637,-0.879c0.879,0.067 1.738,0.916 2.625,1.321c1.321,0.579 3.438,1.687 5.275,2.183c2.417,0.663 6.092,1.675 9.217,1.758c12.367,0.375 64.979,0.442 64.979,0.442Z"/></g></svg>